<?xml version="1.0" encoding="UTF-8" standalone="no"?>
<!-- Generator: Adobe Illustrator 16.0.0, SVG Export Plug-In . SVG Version: 6.00 Build 0)  -->

<svg
   xmlns:sketch="http://www.bohemiancoding.com/sketch/ns"
   xmlns:dc="http://purl.org/dc/elements/1.1/"
   xmlns:cc="http://creativecommons.org/ns#"
   xmlns:rdf="http://www.w3.org/1999/02/22-rdf-syntax-ns#"
   xmlns:svg="http://www.w3.org/2000/svg"
   xmlns="http://www.w3.org/2000/svg"
   xmlns:sodipodi="http://sodipodi.sourceforge.net/DTD/sodipodi-0.dtd"
   xmlns:inkscape="http://www.inkscape.org/namespaces/inkscape"
   version="1.1"
   id="Layer_1"
   x="0px"
   y="0px"
   width="735"
   height="615"
   viewBox="0 0 735 615"
   enable-background="new 0 0 350 270"
   xml:space="preserve"
   inkscape:version="0.91 r13725"
   sodipodi:docname="android_development.svg"><metadata
     id="metadata73"><rdf:RDF><cc:Work
         rdf:about=""><dc:format>image/svg+xml</dc:format><dc:type
           rdf:resource="http://purl.org/dc/dcmitype/StillImage" /><dc:title /></cc:Work></rdf:RDF></metadata><defs
     id="defs71"><rect
       rx="6.86419753"
       height="288.298279"
       width="425.580247"
       y="0"
       x="0"
       id="path-1" /></defs><sodipodi:namedview
     pagecolor="#ffffff"
     bordercolor="#666666"
     borderopacity="1"
     objecttolerance="10"
     gridtolerance="10"
     guidetolerance="10"
     inkscape:pageopacity="0"
     inkscape:pageshadow="2"
     inkscape:window-width="1366"
     inkscape:window-height="702"
     id="namedview69"
     showgrid="false"
     inkscape:zoom="0.87407408"
     inkscape:cx="222.90065"
     inkscape:cy="288.52623"
     inkscape:window-x="0"
     inkscape:window-y="27"
     inkscape:window-maximized="1"
     inkscape:current-layer="g5" /><path
     d="M 351.45805,342.71133 362.77,338.52595 c 0.5629,1.28157 0.8807,2.69401 0.8807,4.18538 0,1.48098 -0.31572,2.9038 -0.8807,4.18538 l -11.31195,-4.18538 z"
     id="path3"
     inkscape:connector-curvature="0"
     style="clip-rule:evenodd;fill:#00c864;fill-rule:evenodd;fill-opacity:1" /><g
     id="g5"
     transform="matrix(2.0771118,0,0,2.0771118,3.2144249,43.996144)"><polygon
       points="207.853,78.489 336.638,79.072 336.638,261.618 207.853,261.618 "
       id="polygon7"
       style="clip-rule:evenodd;fill:#00c864;fill-rule:evenodd;fill-opacity:1" /><path
       d="m 336.638,261.618 0,-182.546 -127.477,0 c -5.8,0 9.257,-8.638 15.057,-8.638 l 120.27,0 0,182.219 -7.85,8.965 z"
       id="path9"
       inkscape:connector-curvature="0"
       style="clip-rule:evenodd;fill:#00c864;fill-rule:evenodd;fill-opacity:1" /><polyline
       stroke-miterlimit="2.6131"
       points="   223.821,71.902 343.153,71.902 343.153,251.893  "
       id="polyline11"
       style="fill:#00c864;stroke:#aad152;stroke-width:0.53299999;stroke-linecap:round;stroke-linejoin:round;stroke-miterlimit:2.61310005;fill-opacity:1" /><polyline
       stroke-miterlimit="2.6131"
       points="   221.105,73.236 341.747,73.236 341.747,253.651  "
       id="polyline13"
       style="fill:#00c864;stroke:#aad152;stroke-width:0.53299999;stroke-linecap:round;stroke-linejoin:round;stroke-miterlimit:2.61310005;fill-opacity:1" /><polyline
       stroke-miterlimit="2.6131"
       points="   218.012,74.731 340.518,74.731 340.518,255.588  "
       id="polyline15"
       style="fill:#00c864;stroke:#aad152;stroke-width:0.53299999;stroke-linecap:round;stroke-linejoin:round;stroke-miterlimit:2.61310005;fill-opacity:1" /><polyline
       stroke-miterlimit="2.6131"
       points="   214.723,76.251 339.175,76.251 339.175,257.093  "
       id="polyline17"
       style="fill:#00c864;stroke:#aad152;stroke-width:0.53299999;stroke-linecap:round;stroke-linejoin:round;stroke-miterlimit:2.61310005;fill-opacity:1" /><polyline
       stroke-miterlimit="2.6131"
       points="   211.813,77.631 337.813,77.631 337.813,258.718  "
       id="polyline19"
       style="fill:#00c864;stroke:#aad152;stroke-width:0.53299999;stroke-linecap:round;stroke-linejoin:round;stroke-miterlimit:2.61310005;fill-opacity:1" /><path
       d="m 41.501,7.541 233.97,0 c 7.428,0 13.502,6.074 13.502,13.505 l 0,189.08 c 0,7.436 -6.074,13.51 -13.502,13.51 l -233.97,0 c -7.431,0 -13.505,-6.074 -13.505,-13.51 l 0,-189.08 c 0,-7.431 6.074,-13.505 13.505,-13.505"
       id="path21"
       inkscape:connector-curvature="0"
       style="clip-rule:evenodd;fill:#606062;fill-rule:evenodd" /><path
       d="m 45.155,20.118 226.665,0 c 3.439,0 6.25,2.812 6.25,6.25 l 0,148.064 c 0,3.44 -2.811,6.252 -6.25,6.252 l -226.665,0 c -3.439,0 -6.25,-2.812 -6.25,-6.252 l 0,-148.064 c 0,-3.439 2.811,-6.25 6.25,-6.25"
       id="path23"
       inkscape:connector-curvature="0"
       style="clip-rule:evenodd;fill:#f5f5f5;fill-rule:evenodd;fill-opacity:1" /><path
       d="m 194.309,221.213 -71.64,0 c 0,35.984 -23.329,15.826 -23.329,40.405 l 59.148,0 59.143,0 c 0,-24.579 -23.322,-4.421 -23.322,-40.405"
       id="path25"
       inkscape:connector-curvature="0"
       style="clip-rule:evenodd;fill:#606062;fill-rule:evenodd" /><path
       d="m 158.488,212.778 c 5.474,0 9.912,-4.438 9.912,-9.92 0,-5.474 -4.438,-9.911 -9.912,-9.911 -5.48,0 -9.92,4.438 -9.92,9.911 0,5.482 4.44,9.92 9.92,9.92"
       id="path27"
       inkscape:connector-curvature="0"
       style="clip-rule:evenodd;fill:#f5f5f5;fill-rule:evenodd;fill-opacity:1" /><rect
       x="24.841999"
       y="248.17"
       width="53.799"
       height="14.289"
       id="rect37"
       style="clip-rule:evenodd;fill:#aad152;fill-rule:evenodd" /><polygon
       points="24.842,262.459 5.513,255.314 24.842,248.17 "
       id="polygon39"
       style="clip-rule:evenodd;fill:#d2d3d5;fill-rule:evenodd" /><path
       d="m 78.641,262.459 0,-14.289 8.594,0 c 1.678,0 3.05,1.371 3.05,3.051 l 0,8.188 c 0,1.68 -1.372,3.051 -3.05,3.051 l -8.594,0 z"
       id="path41"
       inkscape:connector-curvature="0"
       style="clip-rule:evenodd;fill:#606062;fill-rule:evenodd" /><polygon
       points="24.841,258.338 58.55,258.338 78.636,258.338 78.641,252.291 58.55,252.291 24.841,252.291 "
       id="polygon43"
       style="clip-rule:evenodd;fill:#ffcd3a;fill-rule:evenodd" /><path
       d="m 321.63692,230.28338 -18.5229,18.522 18.5229,0 0,-18.522 z m 11.00694,-25.11 -54.73571,54.746 54.73571,0 0,-54.746 z"
       id="path45"
       inkscape:connector-curvature="0"
       style="clip-rule:evenodd;fill:#fefefe;fill-rule:evenodd" /><rect
       x="39.562527"
       y="176.07687"
       width="1.839"
       height="11.052"
       id="rect47"
       style="clip-rule:evenodd;fill:#ffcd3a;fill-rule:evenodd" /><path
       d="m 36.343523,186.64388 c 1.725,0 6.561,0 8.276,0 0.628,0 1.14,0.511 1.14,1.131 l 0,2.157 c 0,0.619 -0.512,1.141 -1.14,1.141 -1.716,0 -6.552,0 -8.276,0 -0.619,0 -1.131,-0.514 -1.131,-1.141 l 0,-2.157 c 0.001,-0.621 0.512,-1.131 1.131,-1.131"
       id="path49"
       inkscape:connector-curvature="0"
       style="clip-rule:evenodd;fill:#606062;fill-rule:evenodd" /><path
       d="m 40.481523,171.48688 c 2.025,0 3.661,1.637 3.661,3.661 0,2.024 -1.636,3.66 -3.661,3.66 -2.024,0 -3.66,-1.636 -3.66,-3.66 0,-2.024 1.636,-3.661 3.66,-3.661"
       id="path51"
       inkscape:connector-curvature="0"
       style="clip-rule:evenodd;fill:#ffcd3a;fill-rule:evenodd" /><path
       d="m 31.835523,188.31388 c 5.817,0 11.476,0 17.294,0 2.122,0 3.847,1.724 3.847,3.836 l 0,7.304 c 0,2.114 -1.725,3.847 -3.847,3.847 -5.818,0 -11.477,0 -17.294,0 -2.112,0 -3.845,-1.732 -3.845,-3.847 l 0,-7.304 c 0,-2.113 1.732,-3.836 3.845,-3.836"
       id="path53"
       inkscape:connector-curvature="0"
       style="clip-rule:evenodd;fill:#00c853;fill-opacity:1;fill-rule:evenodd" /><path
       d="m 34.726523,192.15888 c 1.972,0 3.563,1.591 3.563,3.555 0,1.971 -1.591,3.563 -3.563,3.563 -1.963,0 -3.555,-1.593 -3.555,-3.563 0.001,-1.964 1.592,-3.555 3.555,-3.555"
       id="path55"
       inkscape:connector-curvature="0"
       style="clip-rule:evenodd;fill:#ffcd3a;fill-rule:evenodd" /><path
       d="m 46.236523,192.15888 c 1.965,0 3.556,1.591 3.556,3.555 0,1.971 -1.591,3.563 -3.556,3.563 -1.97,0 -3.562,-1.593 -3.562,-3.563 0,-1.964 1.592,-3.555 3.562,-3.555"
       id="path57"
       inkscape:connector-curvature="0"
       style="clip-rule:evenodd;fill:#ffcd3a;fill-rule:evenodd" /><path
       d="m 29.633523,205.85488 c 5.827,0 15.871,0 21.697,0 2.112,0 3.836,1.732 3.836,3.837 l 0,17.374 c 0,2.104 -1.724,3.846 -3.836,3.846 -5.826,0 -15.87,0 -21.697,0 -2.113,0 -3.837,-1.732 -3.837,-3.846 l 0,-17.374 c 0.001,-2.113 1.724,-3.837 3.837,-3.837"
       id="path59"
       inkscape:connector-curvature="0"
       style="clip-rule:evenodd;fill:#00c853;fill-opacity:1;fill-rule:evenodd" /><path
       d="m 61.242523,205.85488 c 5.11,0 -4.412,0 0.697,0 1.849,0 3.369,1.521 3.369,3.369 l 0,20.776 c 0,1.848 -1.521,3.378 -3.369,3.378 -5.109,0 4.413,0 -0.697,0 -1.857,0 -3.378,-1.521 -3.378,-3.378 l 0,-20.776 c 0,-1.857 1.52,-3.369 3.378,-3.369"
       id="path61"
       inkscape:connector-curvature="0"
       style="clip-rule:evenodd;fill:#00c853;fill-opacity:1;fill-rule:evenodd" /><path
       d="m 19.032523,205.85488 c 5.11,0 -4.411,0 0.689,0 1.857,0 3.378,1.521 3.378,3.369 l 0,20.776 c 0,1.848 -1.521,3.378 -3.378,3.378 -5.101,0 4.421,0 -0.689,0 -1.855,0 -3.377,-1.521 -3.377,-3.378 l 0,-20.776 c 0,-1.857 1.521,-3.369 3.377,-3.369"
       id="path63"
       inkscape:connector-curvature="0"
       style="clip-rule:evenodd;fill:#00c853;fill-opacity:1;fill-rule:evenodd" /><path
       d="m 30.517523,233.99688 c 5.111,0 -0.628,0 4.482,0 1.857,0 3.369,1.546 3.369,3.369 l 0,21.837 c 0,1.83 -1.512,3.378 -3.369,3.378 -5.11,0 0.629,0 -4.482,0 -1.856,0 -3.369,-1.521 -3.369,-3.378 l 0,-21.837 c 0,-1.857 1.513,-3.369 3.369,-3.369"
       id="path65"
       inkscape:connector-curvature="0"
       style="clip-rule:evenodd;fill:#00c853;fill-opacity:1;fill-rule:evenodd" /><path
       d="m 45.963523,233.99688 c 5.111,0 -0.627,0 4.482,0 1.857,0 3.369,1.546 3.369,3.369 l 0,21.837 c 0,1.83 -1.512,3.378 -3.369,3.378 -5.109,0 0.629,0 -4.482,0 -1.855,0 -3.367,-1.521 -3.367,-3.378 l 0,-21.837 c -10e-4,-1.857 1.511,-3.369 3.367,-3.369"
       id="path67"
       inkscape:connector-curvature="0"
       style="clip-rule:evenodd;fill:#00c853;fill-opacity:1;fill-rule:evenodd" /><g
       sketch:type="MSPage"
       id="New-competitions-page"
       transform="matrix(0.48143773,0,0,0.48143773,-296.80838,-44.603446)"
       style="fill:none;fill-rule:evenodd;stroke:none;stroke-width:1" /><rect
       style="color:#000000;clip-rule:nonzero;display:inline;overflow:visible;visibility:visible;opacity:0.83699999;isolation:auto;mix-blend-mode:normal;color-interpolation:sRGB;color-interpolation-filters:linearRGB;solid-color:#000000;solid-opacity:1;fill:#6c6753;fill-opacity:1;fill-rule:nonzero;stroke:none;stroke-width:0.33546346;stroke-linecap:round;stroke-linejoin:round;stroke-miterlimit:4;stroke-dasharray:none;stroke-dashoffset:3.29999995;stroke-opacity:1;color-rendering:auto;image-rendering:auto;shape-rendering:auto;text-rendering:auto;enable-background:accumulate"
       id="rect4482"
       width="59.632092"
       height="4.0015559"
       x="47.262737"
       y="56.025551"
       ry="2.000778" /><rect
       style="color:#000000;clip-rule:nonzero;display:inline;overflow:visible;visibility:visible;opacity:0.83699999;isolation:auto;mix-blend-mode:normal;color-interpolation:sRGB;color-interpolation-filters:linearRGB;solid-color:#000000;solid-opacity:1;fill:#808080;fill-opacity:1;fill-rule:nonzero;stroke:none;stroke-width:0.33546346;stroke-linecap:round;stroke-linejoin:round;stroke-miterlimit:4;stroke-dasharray:none;stroke-dashoffset:3.29999995;stroke-opacity:1;color-rendering:auto;image-rendering:auto;shape-rendering:auto;text-rendering:auto;enable-background:accumulate"
       id="rect4482-5"
       width="23.021669"
       height="4.0015559"
       x="47.309868"
       y="64.534195"
       ry="2.000778" /><rect
       style="color:#000000;clip-rule:nonzero;display:inline;overflow:visible;visibility:visible;opacity:0.83699999;isolation:auto;mix-blend-mode:normal;color-interpolation:sRGB;color-interpolation-filters:linearRGB;solid-color:#000000;solid-opacity:1;fill:#ccff00;fill-opacity:1;fill-rule:nonzero;stroke:none;stroke-width:0.33546346;stroke-linecap:round;stroke-linejoin:round;stroke-miterlimit:4;stroke-dasharray:none;stroke-dashoffset:3.29999995;stroke-opacity:1;color-rendering:auto;image-rendering:auto;shape-rendering:auto;text-rendering:auto;enable-background:accumulate"
       id="rect4482-5-1"
       width="47.789948"
       height="4.0015559"
       x="47.83704"
       y="72.775887"
       ry="2.000778" /><rect
       style="color:#000000;clip-rule:nonzero;display:inline;overflow:visible;visibility:visible;opacity:0.83699999;isolation:auto;mix-blend-mode:normal;color-interpolation:sRGB;color-interpolation-filters:linearRGB;solid-color:#000000;solid-opacity:1;fill:#ff5555;fill-opacity:1;fill-rule:nonzero;stroke:none;stroke-width:0.33546346;stroke-linecap:round;stroke-linejoin:round;stroke-miterlimit:4;stroke-dasharray:none;stroke-dashoffset:3.29999995;stroke-opacity:1;color-rendering:auto;image-rendering:auto;shape-rendering:auto;text-rendering:auto;enable-background:accumulate"
       id="rect4482-5-8"
       width="23.021669"
       height="4.0015559"
       x="73.105507"
       y="64.556801"
       ry="2.000778" /><rect
       style="color:#000000;clip-rule:nonzero;display:inline;overflow:visible;visibility:visible;opacity:0.83699999;isolation:auto;mix-blend-mode:normal;color-interpolation:sRGB;color-interpolation-filters:linearRGB;solid-color:#000000;solid-opacity:1;fill:#ff6600;fill-opacity:1;fill-rule:nonzero;stroke:none;stroke-width:0.33546346;stroke-linecap:round;stroke-linejoin:round;stroke-miterlimit:4;stroke-dasharray:none;stroke-dashoffset:3.29999995;stroke-opacity:1;color-rendering:auto;image-rendering:auto;shape-rendering:auto;text-rendering:auto;enable-background:accumulate"
       id="rect4482-5-8-5"
       width="23.021669"
       height="4.0015559"
       x="99.276741"
       y="64.562904"
       ry="2.000778" /><rect
       style="color:#000000;clip-rule:nonzero;display:inline;overflow:visible;visibility:visible;opacity:0.83699999;isolation:auto;mix-blend-mode:normal;color-interpolation:sRGB;color-interpolation-filters:linearRGB;solid-color:#000000;solid-opacity:1;fill:#668000;fill-opacity:1;fill-rule:nonzero;stroke:none;stroke-width:0.33546346;stroke-linecap:round;stroke-linejoin:round;stroke-miterlimit:4;stroke-dasharray:none;stroke-dashoffset:3.29999995;stroke-opacity:1;color-rendering:auto;image-rendering:auto;shape-rendering:auto;text-rendering:auto;enable-background:accumulate"
       id="rect4482-6"
       width="59.632092"
       height="4.0015559"
       x="47.397533"
       y="89.653671"
       ry="2.000778" /><rect
       style="color:#000000;clip-rule:nonzero;display:inline;overflow:visible;visibility:visible;opacity:0.83699999;isolation:auto;mix-blend-mode:normal;color-interpolation:sRGB;color-interpolation-filters:linearRGB;solid-color:#000000;solid-opacity:1;fill:#2ca02c;fill-opacity:1;fill-rule:nonzero;stroke:none;stroke-width:0.33546346;stroke-linecap:round;stroke-linejoin:round;stroke-miterlimit:4;stroke-dasharray:none;stroke-dashoffset:3.29999995;stroke-opacity:1;color-rendering:auto;image-rendering:auto;shape-rendering:auto;text-rendering:auto;enable-background:accumulate"
       id="rect4482-5-0"
       width="23.021669"
       height="4.0015559"
       x="47.44466"
       y="98.162315"
       ry="2.000778" /><rect
       style="color:#000000;clip-rule:nonzero;display:inline;overflow:visible;visibility:visible;opacity:0.83699999;isolation:auto;mix-blend-mode:normal;color-interpolation:sRGB;color-interpolation-filters:linearRGB;solid-color:#000000;solid-opacity:1;fill:#008000;fill-opacity:1;fill-rule:nonzero;stroke:none;stroke-width:0.33546346;stroke-linecap:round;stroke-linejoin:round;stroke-miterlimit:4;stroke-dasharray:none;stroke-dashoffset:3.29999995;stroke-opacity:1;color-rendering:auto;image-rendering:auto;shape-rendering:auto;text-rendering:auto;enable-background:accumulate"
       id="rect4482-5-1-5"
       width="47.789948"
       height="4.0015559"
       x="47.971836"
       y="106.40401"
       ry="2.000778" /><rect
       style="color:#000000;clip-rule:nonzero;display:inline;overflow:visible;visibility:visible;opacity:0.83699999;isolation:auto;mix-blend-mode:normal;color-interpolation:sRGB;color-interpolation-filters:linearRGB;solid-color:#000000;solid-opacity:1;fill:#918a6f;fill-opacity:1;fill-rule:nonzero;stroke:none;stroke-width:0.33546346;stroke-linecap:round;stroke-linejoin:round;stroke-miterlimit:4;stroke-dasharray:none;stroke-dashoffset:3.29999995;stroke-opacity:1;color-rendering:auto;image-rendering:auto;shape-rendering:auto;text-rendering:auto;enable-background:accumulate"
       id="rect4482-5-8-5-3"
       width="23.021669"
       height="4.0015559"
       x="72.451027"
       y="98.191025"
       ry="2.000778" /><rect
       style="color:#000000;clip-rule:nonzero;display:inline;overflow:visible;visibility:visible;opacity:0.83699999;isolation:auto;mix-blend-mode:normal;color-interpolation:sRGB;color-interpolation-filters:linearRGB;solid-color:#000000;solid-opacity:1;fill:#ffffff;fill-opacity:1;fill-rule:nonzero;stroke:none;stroke-width:0.33546346;stroke-linecap:round;stroke-linejoin:round;stroke-miterlimit:4;stroke-dasharray:none;stroke-dashoffset:3.29999995;stroke-opacity:1;color-rendering:auto;image-rendering:auto;shape-rendering:auto;text-rendering:auto;enable-background:accumulate"
       id="rect4482-6-5"
       width="59.632092"
       height="4.0015559"
       x="47.787003"
       y="123.53777"
       ry="2.000778" /><rect
       style="color:#000000;clip-rule:nonzero;display:inline;overflow:visible;visibility:visible;opacity:0.83699999;isolation:auto;mix-blend-mode:normal;color-interpolation:sRGB;color-interpolation-filters:linearRGB;solid-color:#000000;solid-opacity:1;fill:#008000;fill-opacity:1;fill-rule:nonzero;stroke:none;stroke-width:0.33546346;stroke-linecap:round;stroke-linejoin:round;stroke-miterlimit:4;stroke-dasharray:none;stroke-dashoffset:3.29999995;stroke-opacity:1;color-rendering:auto;image-rendering:auto;shape-rendering:auto;text-rendering:auto;enable-background:accumulate"
       id="rect4482-5-0-5"
       width="23.021669"
       height="4.0015559"
       x="48.223602"
       y="114.90964"
       ry="2.000778" /><rect
       style="color:#000000;clip-rule:nonzero;display:inline;overflow:visible;visibility:visible;opacity:0.83699999;isolation:auto;mix-blend-mode:normal;color-interpolation:sRGB;color-interpolation-filters:linearRGB;solid-color:#000000;solid-opacity:1;fill:#ccff00;fill-opacity:1;fill-rule:nonzero;stroke:none;stroke-width:0.33546346;stroke-linecap:round;stroke-linejoin:round;stroke-miterlimit:4;stroke-dasharray:none;stroke-dashoffset:3.29999995;stroke-opacity:1;color-rendering:auto;image-rendering:auto;shape-rendering:auto;text-rendering:auto;enable-background:accumulate"
       id="rect4482-5-1-5-5"
       width="47.789948"
       height="4.0015559"
       x="48.361305"
       y="140.28813"
       ry="2.000778" /><rect
       style="color:#000000;clip-rule:nonzero;display:inline;overflow:visible;visibility:visible;opacity:0.83699999;isolation:auto;mix-blend-mode:normal;color-interpolation:sRGB;color-interpolation-filters:linearRGB;solid-color:#000000;solid-opacity:1;fill:#ff5555;fill-opacity:1;fill-rule:nonzero;stroke:none;stroke-width:0.33546346;stroke-linecap:round;stroke-linejoin:round;stroke-miterlimit:4;stroke-dasharray:none;stroke-dashoffset:3.29999995;stroke-opacity:1;color-rendering:auto;image-rendering:auto;shape-rendering:auto;text-rendering:auto;enable-background:accumulate"
       id="rect4482-5-8-1-6"
       width="23.021669"
       height="4.0015559"
       x="48.31406"
       y="122.72169"
       ry="2.000778" /><rect
       style="color:#000000;clip-rule:nonzero;display:inline;overflow:visible;visibility:visible;opacity:0.83699999;isolation:auto;mix-blend-mode:normal;color-interpolation:sRGB;color-interpolation-filters:linearRGB;solid-color:#000000;solid-opacity:1;fill:#ff6600;fill-opacity:1;fill-rule:nonzero;stroke:none;stroke-width:0.33546346;stroke-linecap:round;stroke-linejoin:round;stroke-miterlimit:4;stroke-dasharray:none;stroke-dashoffset:3.29999995;stroke-opacity:1;color-rendering:auto;image-rendering:auto;shape-rendering:auto;text-rendering:auto;enable-background:accumulate"
       id="rect4482-5-8-5-3-0"
       width="23.021669"
       height="4.0015559"
       x="48.780102"
       y="131.29619"
       ry="2.000778" /><rect
       style="color:#000000;clip-rule:nonzero;display:inline;overflow:visible;visibility:visible;opacity:0.83699999;isolation:auto;mix-blend-mode:normal;color-interpolation:sRGB;color-interpolation-filters:linearRGB;solid-color:#000000;solid-opacity:1;fill:#6c6753;fill-opacity:1;fill-rule:nonzero;stroke:none;stroke-width:0.33546346;stroke-linecap:round;stroke-linejoin:round;stroke-miterlimit:4;stroke-dasharray:none;stroke-dashoffset:3.29999995;stroke-opacity:1;color-rendering:auto;image-rendering:auto;shape-rendering:auto;text-rendering:auto;enable-background:accumulate"
       id="rect4482-69"
       width="59.632092"
       height="4.0015559"
       x="47.39753"
       y="152.35876"
       ry="2.000778" /><rect
       style="color:#000000;clip-rule:nonzero;display:inline;overflow:visible;visibility:visible;opacity:0.83699999;isolation:auto;mix-blend-mode:normal;color-interpolation:sRGB;color-interpolation-filters:linearRGB;solid-color:#000000;solid-opacity:1;fill:#0066ff;fill-opacity:1;fill-rule:nonzero;stroke:none;stroke-width:0.33546346;stroke-linecap:round;stroke-linejoin:round;stroke-miterlimit:4;stroke-dasharray:none;stroke-dashoffset:3.29999995;stroke-opacity:1;color-rendering:auto;image-rendering:auto;shape-rendering:auto;text-rendering:auto;enable-background:accumulate"
       id="rect4482-5-1-9"
       width="47.789948"
       height="4.0015559"
       x="47.971832"
       y="160.93018"
       ry="2.000778" /><rect
       style="color:#000000;clip-rule:nonzero;display:inline;overflow:visible;visibility:visible;opacity:0.83699999;isolation:auto;mix-blend-mode:normal;color-interpolation:sRGB;color-interpolation-filters:linearRGB;solid-color:#000000;solid-opacity:1;fill:#3771c8;fill-opacity:1;fill-rule:nonzero;stroke:none;stroke-width:0.33546346;stroke-linecap:round;stroke-linejoin:round;stroke-miterlimit:4;stroke-dasharray:none;stroke-dashoffset:3.29999995;stroke-opacity:1;color-rendering:auto;image-rendering:auto;shape-rendering:auto;text-rendering:auto;enable-background:accumulate"
       id="rect4482-5-8-5-0"
       width="23.021669"
       height="4.0015559"
       x="99.411537"
       y="160.89612"
       ry="2.000778" /></g></svg>