<?xml version="1.0" encoding="UTF-8" standalone="no"?>
<svg width="564px" height="442px" viewBox="0 0 564 442" version="1.1" xmlns="http://www.w3.org/2000/svg" xmlns:xlink="http://www.w3.org/1999/xlink" xmlns:sketch="http://www.bohemiancoding.com/sketch/ns">
    <!-- Generator: Sketch 3.5.1 (25234) - http://www.bohemiancoding.com/sketch -->
    <title>Logo with Text</title>
    <desc>Created with Sketch.</desc>
    <defs></defs>
    <g id="Page-1" stroke="none" stroke-width="1" fill="none" fill-rule="evenodd" sketch:type="MSPage">
        <g id="Logo-with-Text" sketch:type="MSArtboardGroup" fill="#FF5C4C">
            <g id="TreeHacks" sketch:type="MSLayerGroup" transform="translate(152.000000, 29.000000)">
                <path d="M183.429667,161.071031 C187.124667,165.174536 186.793333,171.496485 182.689667,175.19139 C178.586,178.886296 172.264,178.55508 168.569,174.451408 C164.874167,170.347737 165.2055,164.025788 169.309,160.330882 C173.412667,156.635977 179.734667,156.967359 183.429667,161.071031 L183.429667,161.071031 Z M73.3103333,175.19139 C69.2066667,171.496485 68.8753333,165.174536 72.5703333,161.071031 C76.2653333,156.967359 82.5873333,156.635977 86.691,160.330882 C90.7945,164.025788 91.1258333,170.347737 87.431,174.451408 C83.736,178.55508 77.414,178.886296 73.3103333,175.19139 L73.3103333,175.19139 Z M136,255.919448 L136,214.539841 L167.731,185.96924 C174.7495,189.151812 183.286667,188.107966 189.38,182.621728 C197.587167,175.231917 198.249833,162.588018 190.86,154.380675 C183.470167,146.173498 170.826167,145.5109 162.618833,152.900711 C156.525667,158.38695 154.595167,166.76824 157.026667,174.080834 L136,193.01316 L136,146.42633 C143.0625,143.337652 148,136.28923 148,128.083388 C148,117.030525 139.045667,108.070358 128,108.070358 C116.954333,108.070358 108,117.030525 108,128.083388 C108,136.28923 112.9375,143.337652 120,146.42633 L120,193.01316 L98.9733333,174.080834 C101.404833,166.76824 99.4743333,158.38695 93.3811667,152.900711 C85.1738333,145.5109 72.5298333,146.173498 65.14,154.380675 C57.7501667,162.588018 58.4128333,175.231917 66.62,182.621728 C72.7133333,188.107966 81.2505,189.151812 88.269,185.96924 L120,214.539841 L120,255.919448 C53.0343333,251.787091 0,196.133191 0,128.083388 C0,57.3448339 57.3075,0 128,0 C198.6925,0 256,57.3448339 256,128.083388 C256,196.133191 202.965667,251.787091 136,255.919448 L136,255.919448 Z M128,118.076873 C133.522833,118.076873 138,122.556956 138,128.083388 C138,133.609819 133.522833,138.089902 128,138.089902 C122.477167,138.089902 118,133.609819 118,128.083388 C118,122.556956 122.477167,118.076873 128,118.076873 L128,118.076873 Z" id="Shape" sketch:type="MSShapeGroup"></path>
            </g>
            <text id="TREEHACKS" sketch:type="MSTextLayer" font-family="Avenir Next" font-size="85" font-weight="normal" letter-spacing="1.41666663">
                <tspan x="31" y="411">TREE</tspan>
                <tspan x="236.671667" y="411" font-weight="526" letter-spacing="0.708333313">HACKS</tspan>
            </text>
        </g>
    </g>
</svg>